<svg width="28" height="28" viewBox="0 0 28 28" fill="none" xmlns="http://www.w3.org/2000/svg">
<path d="M26.6 1.41999C26.4149 1.23458 26.1952 1.08749 25.9532 0.987124C25.7113 0.886762 25.4519 0.835101 25.19 0.835101C24.928 0.835101 24.6687 0.886762 24.4267 0.987124C24.1848 1.08749 23.965 1.23458 23.78 1.41999L14 11.18L4.21996 1.39999C4.0348 1.21483 3.81497 1.06795 3.57305 0.967735C3.33112 0.867525 3.07182 0.815948 2.80996 0.815948C2.5481 0.815948 2.2888 0.867525 2.04687 0.967735C1.80494 1.06795 1.58512 1.21483 1.39996 1.39999C1.21479 1.58515 1.06791 1.80497 0.967705 2.0469C0.867495 2.28883 0.815918 2.54813 0.815918 2.80999C0.815918 3.07185 0.867495 3.33115 0.967705 3.57308C1.06791 3.815 1.21479 4.03483 1.39996 4.21999L11.18 14L1.39996 23.78C1.21479 23.9652 1.06791 24.185 0.967705 24.4269C0.867495 24.6688 0.815918 24.9281 0.815918 25.19C0.815918 25.4518 0.867495 25.7111 0.967705 25.9531C1.06791 26.195 1.21479 26.4148 1.39996 26.6C1.58512 26.7852 1.80494 26.932 2.04687 27.0322C2.2888 27.1325 2.5481 27.184 2.80996 27.184C3.07182 27.184 3.33112 27.1325 3.57305 27.0322C3.81497 26.932 4.0348 26.7852 4.21996 26.6L14 16.82L23.78 26.6C23.9651 26.7852 24.1849 26.932 24.4269 27.0322C24.6688 27.1325 24.9281 27.184 25.19 27.184C25.4518 27.184 25.7111 27.1325 25.953 27.0322C26.195 26.932 26.4148 26.7852 26.6 26.6C26.7851 26.4148 26.932 26.195 27.0322 25.9531C27.1324 25.7111 27.184 25.4518 27.184 25.19C27.184 24.9281 27.1324 24.6688 27.0322 24.4269C26.932 24.185 26.7851 23.9652 26.6 23.78L16.82 14L26.6 4.21999C27.36 3.45999 27.36 2.17999 26.6 1.41999Z" fill="white"/>
</svg>
